<?xml version="1.0" standalone="no"?>
<!DOCTYPE svg PUBLIC "-//W3C//DTD SVG 20010904//EN"
 "http://www.w3.org/TR/2001/REC-SVG-20010904/DTD/svg10.dtd">
<svg version="1.0" xmlns="http://www.w3.org/2000/svg"
 width="16.000000pt" height="16.000000pt" viewBox="0 0 16.000000 16.000000"
 preserveAspectRatio="xMidYMid meet">
<metadata>
Created by potrace 1.11, written by Peter Selinger 2001-2013
</metadata>
<g transform="translate(0.000000,16.000000) scale(0.004000,-0.004000)"
fill="#000000" stroke="none">
<path d="M1775 3898 c-16 -6 -79 -43 -140 -83 -60 -41 -121 -78 -135 -83 -36
-15 -169 -92 -210 -123 -19 -15 -46 -29 -60 -32 -64 -15 -142 -115 -175 -224
-27 -88 -10 -515 25 -613 5 -14 12 -50 15 -80 3 -30 8 -75 11 -100 3 -25 7
-72 9 -105 2 -33 5 -60 5 -60 1 0 3 -7 5 -15 2 -8 7 -24 11 -34 6 -15 4 -17
-7 -11 -12 7 -12 6 -1 -7 7 -9 11 -32 9 -52 -2 -20 0 -39 4 -42 5 -3 10 1 10
8 1 7 3 22 5 33 1 11 6 70 9 130 8 141 8 140 42 118 43 -26 63 -55 63 -91 0
-41 21 -91 48 -115 28 -25 246 -60 330 -53 94 8 177 34 205 65 13 14 32 49 41
77 14 44 22 53 61 72 50 24 82 27 135 12 l35 -10 0 -74 c0 -131 31 -145 317
-148 118 -1 161 3 189 14 70 30 109 117 106 238 -2 76 -8 85 -67 102 -25 8
-184 3 -228 -6 -12 -3 -59 -8 -105 -12 -45 -4 -93 -8 -107 -9 -14 -1 -35 -3
-47 -4 -12 0 -35 -12 -51 -26 -26 -21 -36 -24 -75 -19 -38 5 -55 2 -95 -19
l-49 -26 4 35 c3 26 -2 40 -21 59 -14 14 -35 25 -47 25 -11 0 -47 6 -78 14
-69 18 -179 27 -311 28 -104 0 -114 5 -87 42 11 15 19 16 49 8 29 -8 50 -5
122 18 88 29 120 46 111 60 -9 14 8 19 73 21 35 1 59 5 55 9 -16 14 -192 40
-269 40 -67 -1 -83 -4 -105 -23 -39 -35 -72 -112 -66 -152 3 -19 3 -34 -1 -33
-16 4 -72 -14 -82 -27 -9 -11 -17 -11 -36 -3 -26 12 -26 15 1 110 7 25 11 48
9 51 -6 6 80 174 102 198 9 11 13 19 9 19 -5 0 1 9 12 19 12 11 29 44 39 73 9
29 25 59 35 68 9 8 43 53 75 100 32 47 64 91 71 99 8 8 39 44 68 81 48 60 60
69 102 78 189 42 236 51 298 56 l70 5 -50 -19 c-27 -10 -59 -19 -70 -19 -28
-1 -119 -72 -124 -96 -3 -19 -2 -19 15 -4 20 18 79 35 70 21 -2 -4 44 -6 104
-4 112 4 200 -13 217 -42 5 -7 43 -36 86 -65 43 -29 90 -69 105 -90 49 -69 86
-135 98 -175 7 -21 21 -48 32 -60 11 -11 25 -48 32 -81 7 -33 15 -64 18 -70 4
-5 8 -19 9 -29 2 -11 10 -33 18 -49 8 -17 15 -35 15 -41 0 -7 9 -30 20 -51 11
-22 23 -53 26 -70 2 -16 7 -37 9 -45 2 -8 4 -51 4 -95 1 -44 1 -165 1 -270 1
-202 -10 -280 -62 -440 -35 -107 -142 -288 -220 -369 -110 -117 -296 -198
-490 -213 -101 -7 -152 6 -263 71 -49 30 -101 57 -115 61 -26 8 -130 83 -130
94 0 6 -28 41 -118 150 -56 67 -58 71 -85 151 -54 162 -71 252 -78 428 -1 34
-6 62 -11 62 -4 0 -7 -105 -5 -232 l2 -233 36 -80 c19 -44 47 -98 62 -120 15
-21 25 -41 22 -43 -2 -2 -17 -5 -32 -7 -16 -1 -38 -5 -50 -9 -12 -4 -30 -9
-40 -11 -56 -11 -246 -64 -442 -122 -252 -75 -238 -68 -489 -261 -225 -173
-245 -192 -240 -224 l3 -26 50 45 c161 146 246 210 340 259 33 17 98 52 145
78 147 82 202 105 310 131 58 14 146 36 195 49 50 14 104 27 120 31 l30 6 -3
-120 c-3 -107 -1 -124 19 -163 32 -64 255 -285 404 -401 198 -153 167 -142
395 -141 146 0 212 5 263 17 135 33 383 145 363 164 -1 2 -20 -4 -42 -13 -46
-20 -119 -42 -304 -90 -205 -54 -267 -49 -505 43 -151 57 -193 82 -275 160
-101 95 -151 169 -207 303 -24 58 -55 116 -69 128 -21 20 -25 31 -22 69 3 44
4 46 51 64 l47 19 0 -74 c0 -82 7 -96 125 -231 254 -293 242 -281 307 -310 80
-36 139 -42 399 -44 209 -2 217 -1 270 23 57 26 77 41 175 136 90 87 153 201
168 300 3 20 25 58 26 43 0 -6 -4 -14 -8 -17 -5 -3 -8 -15 -7 -28 1 -13 -3
-26 -9 -30 -6 -5 -2 -8 11 -8 12 0 25 5 28 10 4 6 15 8 26 5 10 -4 19 -3 19 2
0 4 29 24 64 43 36 19 63 37 60 41 -2 4 4 5 15 2 11 -3 27 4 39 17 11 12 24
20 29 17 11 -7 39 15 37 31 -1 6 -2 19 -3 28 0 9 -6 12 -13 8 -7 -4 -8 -3 -4
4 4 7 2 12 -5 12 -7 0 -9 3 -6 6 4 4 12 2 19 -3 7 -5 40 -20 73 -33 33 -13 64
-27 70 -32 5 -4 17 -8 27 -8 10 0 18 -4 18 -10 0 -5 6 -10 14 -10 7 0 51 -18
97 -39 46 -22 101 -42 122 -46 20 -4 41 -13 45 -20 4 -7 43 -32 87 -55 44 -24
91 -50 105 -60 14 -9 46 -26 72 -38 46 -21 156 -104 171 -129 13 -21 27 -15
27 11 0 18 -30 51 -114 128 -63 58 -131 113 -152 123 -37 18 -127 46 -151 47
-7 1 -13 4 -13 8 0 5 -112 49 -140 56 -3 0 -12 4 -20 7 -8 3 -43 15 -78 27
-34 11 -114 45 -176 74 -164 77 -309 123 -386 122 l-35 -1 -3 -62 c-3 -61 -16
-87 -20 -40 -1 13 -8 42 -17 66 -15 43 -15 43 19 90 51 71 58 110 63 383 4
193 8 246 18 242 8 -3 14 8 18 34 4 21 13 51 21 68 26 52 75 236 102 384 39
219 47 333 32 465 -8 63 -18 97 -50 158 -23 43 -46 84 -52 90 -6 7 -27 32 -47
57 -116 143 -171 172 -250 133 -19 -9 -60 -18 -91 -19 -31 -1 -61 -5 -66 -8
-6 -4 -11 31 -14 89 -2 80 -6 96 -23 109 -11 9 -28 16 -38 16 -11 0 -53 11
-95 26 -43 14 -91 29 -108 35 -41 12 -321 10 -359 -3z m279 -196 c3 -5 -18 -9
-47 -9 -43 -1 -47 0 -22 7 42 11 63 11 69 2z m-524 -17 c0 -9 -56 -57 -85 -72
-36 -19 -34 -16 30 36 52 42 55 44 55 36z m355 -5 c4 -6 -6 -10 -22 -10 -22 0
-25 2 -13 10 19 12 27 12 35 0z m-195 -134 c0 -2 -51 -36 -114 -75 -97 -61
-118 -78 -135 -114 -12 -24 -21 -49 -21 -55 0 -7 -4 -12 -9 -12 -10 0 -105
-162 -114 -195 -3 -11 -8 -32 -11 -47 -4 -16 -13 -28 -21 -28 -8 0 -40 -53
-79 -132 -37 -76 -67 -127 -69 -118 -5 14 -12 48 -21 95 -2 11 -7 40 -12 65
-14 80 -8 200 16 288 12 46 29 86 37 89 8 3 12 12 9 19 -3 7 0 16 6 20 6 4 8
3 4 -4 -3 -6 -2 -13 3 -17 6 -3 8 -12 4 -20 -7 -19 1 -19 37 0 42 22 37 11 -7
-16 -20 -13 -31 -25 -25 -27 6 -2 22 4 34 12 26 19 42 21 32 5 -3 -6 5 -3 20
6 31 20 35 30 6 15 -35 -19 -21 -3 17 20 29 17 34 18 22 4 -13 -16 -12 -16 8
-4 12 8 20 17 17 21 -2 4 3 12 11 19 8 7 15 21 15 31 0 11 5 19 10 19 5 0 9 3
8 8 -5 16 24 52 42 52 11 0 36 15 56 33 l38 32 -37 -57 c-41 -64 -36 -74 13
-28 18 17 40 30 49 30 9 0 48 15 86 34 80 39 75 37 75 32z m703 -33 c-4 -9 -2
-14 3 -10 6 3 11 -4 11 -15 2 -21 2 -21 -20 1 -15 17 -18 25 -9 28 6 3 9 10 6
15 -4 7 -2 8 4 4 6 -4 8 -14 5 -23z m390 -75 c35 -18 43 -31 76 -108 32 -76
55 -187 39 -196 -4 -3 -8 4 -8 15 0 11 -9 36 -19 55 -11 18 -22 51 -25 71 -4
20 -15 48 -26 62 -10 13 -24 40 -30 59 -6 19 -18 34 -26 34 -8 0 -14 5 -14 10
0 13 6 13 33 -2z m-170 -145 c8 -16 17 -41 21 -56 4 -15 10 -26 14 -23 9 5 11
-7 16 -76 4 -60 -6 -54 -34 21 -12 33 -28 66 -36 72 -16 13 -19 89 -4 89 5 0
16 -12 23 -27z m278 -486 c-10 -9 -11 -8 -5 6 3 10 9 15 12 12 3 -3 0 -11 -7
-18z m-1211 -212 c41 -3 82 -7 90 -10 8 -2 33 -7 55 -11 54 -8 53 -7 48 -56
-7 -78 -35 -150 -67 -169 -50 -31 -184 -50 -256 -37 -25 5 -73 11 -107 13
-117 9 -127 22 -138 177 -6 96 -11 88 60 101 26 5 217 0 315 -8z m-448 -45 l5
-30 -24 22 c-13 12 -23 30 -23 40 0 31 37 3 42 -32z m45 8 c-3 -8 -6 -5 -6 6
-1 11 2 17 5 13 3 -3 4 -12 1 -19z m1404 11 c21 -12 14 -140 -10 -194 -31 -69
-47 -74 -266 -71 -105 2 -197 6 -207 10 -23 11 -36 50 -42 134 -6 87 -6 87
119 96 50 3 104 8 120 11 17 2 57 6 89 9 33 3 61 8 63 10 8 7 121 4 134 -5z
m11 -1124 c21 -39 3 -104 -72 -264 -85 -184 -111 -205 -345 -281 -137 -44
-237 -55 -297 -31 -16 6 -28 7 -28 4 0 -4 -5 -2 -12 5 -7 7 -18 12 -26 12 -23
0 -190 87 -259 135 -35 25 -67 45 -72 45 -14 0 -81 84 -98 123 -9 20 -21 37
-26 37 -4 0 -6 4 -3 8 2 4 -11 39 -30 76 -19 38 -34 70 -34 72 0 12 30 1 46
-17 23 -25 267 -173 339 -204 92 -41 200 -65 293 -65 98 0 104 3 231 100 78
59 313 293 347 345 l19 29 6 -50 c4 -28 13 -63 21 -79z m78 -10 c-5 -7 -9 -14
-7 -16 1 -2 0 -3 -2 -1 -11 7 -7 29 5 29 9 0 11 -4 4 -12z m303 -32 c-4 -11
-8 -13 -11 -5 -2 7 -8 12 -13 12 -6 0 -7 -5 -3 -12 5 -7 3 -8 -6 -3 -10 6 -9
11 5 21 22 16 36 9 28 -13z m-283 -23 c0 -5 -2 -10 -4 -10 -3 0 -8 5 -11 10
-3 6 -1 10 4 10 6 0 11 -4 11 -10z m-15 -32 c-9 -6 -19 -7 -22 -4 -4 3 -1 6 6
6 7 0 9 4 6 10 -4 6 1 7 11 3 15 -6 15 -7 -1 -15z"/>
<path d="M1169 3233 c-13 -17 -13 -17 6 -3 11 8 22 16 24 17 2 2 0 3 -6 3 -6
0 -17 -8 -24 -17z"/>
<path d="M2325 2840 c-38 -22 -71 -44 -73 -50 -2 -5 -10 -10 -17 -10 -8 0 -17
-5 -20 -10 -10 -17 314 -3 340 14 14 9 27 10 45 4 43 -16 59 -18 54 -4 -10 26
-189 97 -239 95 -11 0 -51 -18 -90 -39z"/>
<path d="M2110 1975 c-16 -9 -55 -14 -112 -15 -96 0 -118 -5 -118 -27 0 -13 3
-13 15 -3 9 7 25 10 41 6 65 -17 147 -17 190 0 44 17 94 12 64 -6 -8 -5 -17
-7 -21 -4 -4 2 -12 -3 -19 -11 -10 -12 -10 -15 1 -16 48 -4 79 12 79 41 0 44
-69 64 -120 35z"/>
<path d="M2386 1748 c-31 -109 -42 -193 -26 -203 23 -14 31 13 35 113 4 92 1
124 -9 90z"/>
<path d="M2159 1696 c-31 -7 -65 -11 -75 -9 -48 9 -177 10 -212 2 -21 -4 -58
-17 -83 -29 l-44 -20 60 6 c69 8 158 8 262 1 43 -3 91 0 115 7 24 7 50 12 58
11 20 -2 40 14 40 31 0 17 -42 17 -121 0z"/>
<path d="M1657 1683 c-11 -11 -8 -93 3 -93 7 0 10 20 9 50 -2 28 -3 50 -4 50
-1 0 -5 -3 -8 -7z"/>
<path d="M2130 1601 c-19 -10 -69 -22 -110 -25 -80 -8 -119 -25 -60 -27 19 -1
58 -3 85 -5 57 -3 160 36 153 58 -7 20 -29 19 -68 -1z"/>
<path d="M827 1083 c-4 -4 6 -12 23 -19 16 -7 35 -24 42 -39 6 -14 16 -25 22
-25 6 0 4 -5 -4 -10 -11 -7 -11 -10 -2 -10 7 0 11 -4 7 -9 -3 -5 4 -16 15 -24
11 -7 17 -17 14 -20 -4 -4 1 -9 10 -13 9 -3 16 -13 16 -21 0 -8 5 -11 10 -8 6
3 10 -1 10 -10 0 -8 7 -18 15 -21 8 -4 15 -12 15 -20 0 -8 6 -11 18 -7 9 3 14
3 10 -2 -4 -4 4 -19 18 -32 14 -12 23 -23 20 -23 -3 0 3 -15 13 -32 10 -18 24
-32 29 -31 6 2 9 -3 6 -10 -3 -9 10 -20 35 -32 22 -10 53 -31 68 -46 16 -16
34 -29 41 -29 6 0 12 -4 12 -10 0 -5 7 -10 15 -10 8 0 15 -4 15 -10 0 -5 5
-10 11 -10 7 0 18 -8 26 -17 10 -12 12 -13 8 -3 -4 8 1 6 9 -4 15 -19 16 -19
16 -1 0 18 1 18 16 -1 8 -10 12 -12 8 -4 -4 8 -4 12 1 8 4 -4 15 -2 24 4 13
10 14 10 4 -2 -15 -16 -17 -34 -4 -25 5 3 12 -3 16 -12 3 -10 22 -36 42 -58
l36 -40 -28 48 c-16 28 -22 47 -14 45 8 -2 13 8 14 29 0 19 -3 29 -10 25 -7
-4 -7 -1 0 9 6 8 10 48 10 89 l0 75 -49 3 c-42 3 -47 6 -43 23 4 16 -6 25 -54
49 -32 17 -64 30 -70 30 -17 0 -131 59 -154 80 -23 21 -172 120 -180 120 -3 0
-28 16 -56 35 -53 36 -61 40 -72 28z m669 -578 c1 -9 -4 -11 -14 -7 -10 4 -12
7 -4 10 7 2 9 9 5 15 -3 7 -2 8 2 4 5 -4 10 -14 11 -22z"/>
<path d="M472 823 c8 -10 24 -29 34 -42 10 -13 34 -40 51 -60 18 -20 33 -39
33 -43 0 -5 6 -8 14 -8 8 0 17 -7 20 -16 3 -9 13 -14 21 -11 9 4 12 1 9 -8 -6
-15 29 -39 41 -27 3 4 5 1 3 -7 -2 -7 3 -16 11 -19 9 -3 11 0 6 9 -5 8 -4 11
1 6 5 -5 9 -14 9 -20 0 -7 10 -16 23 -22 12 -5 22 -14 22 -20 0 -5 5 -3 10 5
8 13 10 13 10 -1 0 -19 46 -42 63 -33 7 4 9 4 5 -1 -8 -8 196 -115 219 -115 7
0 13 -5 13 -12 0 -6 3 -9 6 -5 3 3 15 -3 27 -13 11 -11 24 -17 29 -14 4 3 8 0
8 -5 0 -6 6 -11 14 -11 8 0 16 -3 18 -8 2 -4 23 -23 48 -42 71 -55 224 -193
275 -248 17 -17 36 -32 44 -32 16 0 -37 69 -105 135 -29 28 -110 107 -182 178
-71 70 -134 127 -140 127 -5 0 -12 8 -14 18 -4 14 -18 21 -49 25 -24 3 -74 20
-112 37 -37 16 -78 31 -92 32 -14 1 -25 6 -25 10 0 4 -6 8 -12 8 -7 0 -32 9
-56 20 -23 10 -43 18 -45 17 -1 -1 -16 13 -33 30 -17 18 -34 30 -37 26 -4 -3
-7 -1 -7 6 0 7 -4 9 -10 6 -5 -3 -10 2 -10 11 0 10 -3 15 -6 11 -3 -3 -39 28
-79 69 -39 40 -76 74 -80 74 -4 0 -1 -8 7 -17z"/>
</g>
</svg>
